<svg aria-hidden="true" width="48" height="48" fill="#454545" xmlns="http://www.w3.org/2000/svg"><path d="M42 18h-1.94l-2-5.66A2 2 0 0 0 36.2 11H31V9a2 2 0 0 0-2-2H6a2 2 0 0 0-2 2v22.5a2 2 0 0 0 2 2h4.63a5.5 5.5 0 0 0 9.8 0h7.67a5.49 5.49 0 0 0 9.79 0H42a2 2 0 0 0 2-2V20a2 2 0 0 0-2-2zM15.51 33.5A2.5 2.5 0 1 1 18 31a2.5 2.5 0 0 1-2.49 2.5zm17.49 0a2.5 2.5 0 1 1 2.5-2.5 2.5 2.5 0 0 1-2.5 2.5zm8-3h-2.53a5.5 5.5 0 0 0-10.95 0H21a5.5 5.5 0 0 0-11 0H7V10h21v11.5a1.5 1.5 0 0 0 3 0V14h4.5l2.44 7H41zm1.5 7.5h-37a1.5 1.5 0 0 0 0 3h37a1.5 1.5 0 0 0 0-3z"/></svg>