<svg aria-hidden="true" width="48" height="48" fill="#454545" xmlns="http://www.w3.org/2000/svg"><g clip-path="url(#a)"><path fill-rule="evenodd" d="M10 8.5A1.5 1.5 0 0 0 8.5 10v8a1.5 1.5 0 0 0 3 0v-4.379l11 11V38a1.5 1.5 0 0 0 3 0V24a1.5 1.5 0 0 0-.44-1.06L13.622 11.5H18a1.5 1.5 0 0 0 0-3h-8zm26.5 5.121V18a1.5 1.5 0 0 0 3 0v-8A1.5 1.5 0 0 0 38 8.5h-8a1.5 1.5 0 0 0 0 3h4.379l-6.44 6.44a1.5 1.5 0 0 0 2.122 2.12l6.439-6.439z"/></g><defs><clipPath id="a"><path d="M0 0h48v48H0z"/></clipPath></defs></svg>