<svg version="1.1" id="_x32_" xmlns="http://www.w3.org/2000/svg" viewBox="0 0 512 512" xml:space="preserve"><style>.st0{fill:#000}</style><path class="st0" d="M430.337 231.065H81.674c-29.701 0-53.858 24.16-53.858 53.862v65.86l15.806 2.262c9.135 1.31 16.03 9.258 16.03 18.483 0 9.225-6.891 17.173-16.022 18.482l-15.814 2.262v65.87c0 29.693 24.157 53.854 53.858 53.854h348.663c29.701 0 53.862-24.161 53.862-53.854V391l-17.571-.822c-9.982-.463-17.808-8.655-17.808-18.645 0-9.982 7.826-18.174 17.815-18.646l17.564-.83v-67.13c0-29.702-24.161-53.862-53.862-53.862zm35.428 103.412c-19.686.936-35.371 17.14-35.371 37.056 0 19.923 15.685 36.135 35.371 37.055v49.558c0 19.565-15.864 35.428-35.428 35.428H81.674c-19.569 0-35.432-15.863-35.432-35.428v-49.892c17.991-2.579 31.836-18.011 31.836-36.722 0-18.703-13.846-34.135-31.836-36.721v-49.884c0-19.573 15.863-35.436 35.432-35.436h348.663c19.564 0 35.428 15.863 35.428 35.436v49.55z"/><path class="st0" d="M133.621 439.419h12.19v31.8h-12.19zm0-55.855h12.19v31.792h-12.19zm0-55.864h12.19v31.8h-12.19zm0-55.854h12.19v31.799h-12.19zm-22.376-91.088-10.653 5.922 15.461 27.781 10.649-5.922z"/><path class="st0" d="m497.524 179.025-24.095-43.311-8.558-15.36-15.749 7.826c-8.948 4.442-19.768 1.09-24.617-7.639-4.865-8.721-2.001-19.687 6.492-24.95l14.952-9.266-8.558-15.368-24.088-43.294C398.863 1.714 366.006-7.658 340.047 6.79L35.374 176.299C9.419 190.739.056 223.604 14.496 249.555l.875 1.578a74.902 74.902 0 0 1 12.324-17.409c-4.803-15.643 1.762-33.044 16.636-41.326l304.681-169.51c17.1-9.518 38.674-3.368 48.192 13.732l24.088 43.302c-16.751 10.38-22.575 32.182-12.895 49.582 9.681 17.401 31.271 23.942 48.925 15.172l24.095 43.312c7.273 13.056 5.337 28.692-3.571 39.601 4.776 3.961 8.989 8.558 12.65 13.569 14.904-16.634 18.483-41.543 7.028-62.133z"/></svg>