<?xml version="1.0" encoding="utf-8"?>
<!-- Generator: Adobe Illustrator 27.6.1, SVG Export Plug-In . SVG Version: 6.00 Build 0)  -->
<svg version="1.1" id="Слой_1" xmlns="http://www.w3.org/2000/svg" xmlns:xlink="http://www.w3.org/1999/xlink" x="0px" y="0px"
	 viewBox="0 0 1204.09 412.09" style="enable-background:new 0 0 1204.09 412.09;" xml:space="preserve">
<style type="text/css">
	.st0{fill:#FD5360;}
	.st1{fill:#FFA521;}
	.st2{fill:none;}
	.st3{fill:#004BF4;}
	.st4{fill:#FF5363;}
	.st5{fill:#7013C6;}
	.st6{fill:#004BF6;}
	.st7{fill:#FFFFFF;}
</style>
<path class="st0" d="M61.43,163.95c0,2.07-0.32,4.12-0.94,5.99c-0.03,0.16-0.1,0.32-0.16,0.45c-0.65,1.94-1.59,3.76-2.85,5.38
	c0,0.03-0.03,0.06-0.03,0.1c-0.75,1-1.59,1.94-2.53,2.79c-3.53,3.21-8.2,5.15-13.35,5.15c-10.95,0-19.83-8.88-19.83-19.86
	c0-10.95,8.88-19.86,19.83-19.86C52.55,144.08,61.43,152.99,61.43,163.95z"/>
<path class="st1" d="M262.08,137.52c-9.6-7.25-20.21-13.24-31.63-17.62c-14.62-5.67-30.49-8.79-47.1-8.79
	c-2.75,0-5.51,0.08-8.22,0.24c-39.52,2.47-74.31,22.52-96.54,52.44c-0.08-1.46-0.12-2.92-0.12-4.41c0-51.43,41.67-93.1,93.1-93.1
	c34.83,0,65.16,19.11,81.11,47.38c0.45,0.77,0.85,1.54,1.26,2.31C257.51,122.7,260.26,129.91,262.08,137.52z"/>
<path class="st2" d="M252.69,113.67c0.45,0.77,0.85,1.54,1.26,2.31c1.13-0.04,2.27-0.08,3.44-0.08c0.61,0,1.21,0,1.78,0.04
	C257.02,115.13,254.87,114.36,252.69,113.67z"/>
<path class="st3" d="M348.58,245.57c0,63.09-42.2,116.39-99.9,133.11c-12.27,3.6-25.27,5.51-38.71,5.51
	c-26.36,0-51.03-7.37-72-20.17c14.13,5.26,29.44,8.14,45.4,8.14c55.36,0,102.66-34.46,121.61-83.1c5.55-3.28,10.73-7.17,15.43-11.5
	c0,0,0,0,0-0.04c13.28-12.19,23-28.23,27.42-46.37C348.34,235.89,348.58,240.71,348.58,245.57z"/>
<path class="st4" d="M350.49,209.04c0,7.61-0.93,15.02-2.67,22.11c-4.41,18.14-14.13,34.18-27.42,46.37c0,0.04,0,0.04,0,0.04
	c-4.7,4.33-9.88,8.22-15.43,11.5c5.75-14.7,8.91-30.7,8.91-47.42c0-24.22-6.6-46.89-18.1-66.33c-8.67-14.7-20.17-27.54-33.69-37.78
	c-1.82-7.61-4.58-14.82-8.14-21.54c1.13-0.04,2.27-0.08,3.44-0.08c0.61,0,1.21,0,1.78,0.04
	C309.79,116.87,350.49,158.22,350.49,209.04z"/>
<path class="st2" d="M70.17,176.4c-2.51,3.52-4.82,7.13-6.97,10.89c1.17-1.05,2.23-2.23,3.16-3.48c0-0.04,0.04-0.08,0.04-0.12
	c1.58-2.02,2.75-4.29,3.56-6.72c0.32-0.57,0.65-1.13,0.97-1.66C70.66,175.67,70.41,176.03,70.17,176.4z"/>
<path class="st5" d="M248.68,378.68c-19.44,10.45-41.71,16.36-65.32,16.36c-76.54,0-138.62-62.08-138.62-138.62
	c0-25.19,6.72-48.8,18.47-69.13c1.17-1.05,2.23-2.23,3.16-3.48c-8.67,17.41-13.53,37.05-13.53,57.83
	c0,56.13,35.43,103.95,85.12,122.38c20.98,12.8,45.64,20.17,72,20.17C223.41,384.19,236.41,382.28,248.68,378.68z"/>
<path d="M292.36,241c0,21.78-6.44,42.07-17.49,59.01c-9.01,13.82-21.09,25.45-35.27,33.93c-5.73,3.43-11.8,6.34-18.15,8.68
	c-11.63,4.27-24.19,6.59-37.3,6.59c-7.87,0-15.57-0.85-22.97-2.45c-2.25-0.48-4.47-1.04-6.67-1.66c-5.74-1.62-11.27-3.72-16.57-6.22
	c-0.15-0.06-0.28-0.13-0.43-0.2c-19.66-9.39-36.03-24.56-46.94-43.29c-0.26-0.45-0.52-0.9-0.77-1.35c0.33,0.05,0.67,0.07,1.02,0.07
	c1.49,0,2.91-0.46,4.19-1.28h4.28c2.89,0,5.47-1.79,7.24-4.64h62.77c2.43,3.91,5.99,6.37,9.94,6.37h9.36c3.97,0,7.53-2.46,9.95-6.37
	h27.55c2.43,3.91,5.99,6.37,9.95,6.37c3.97,0,7.53-2.47,9.94-6.39c3.4-0.02,6.63-0.79,9.53-2.14c1.82-0.83,3.5-1.89,5.03-3.14
	c0,0,0.01,0,0.01-0.01c0.6-0.49,1.17-1.02,1.72-1.57c0.07-0.07,0.16-0.15,0.23-0.23c3.12-3.21,5.32-7.32,6.18-11.9
	c0.27-1.4,0.41-2.86,0.41-4.34v-56.38l3.13,16.03l3.21-0.04c4.35-0.04,7.86-3.59,7.86-7.94v-6.22c0-4.31-3.51-7.82-7.82-7.82h-7.23
	c-2.68-9.3-11.46-15.97-21.64-15.52l-51.4,2.25L79.61,214.4c-0.13,0.03-0.25,0.05-0.38,0.09c1.75-6.94,4.18-13.61,7.2-19.94
	c17.33-36.52,54.59-61.76,97.72-61.76c0.58,0,1.15,0,1.73,0.02c5.43,0.07,10.77,0.57,15.96,1.44c24.94,4.08,46.98,16.69,63.06,34.74
	C282,188.11,292.36,213.34,292.36,241z"/>
<path class="st2" d="M66.4,183.69c1.58-2.02,2.75-4.29,3.56-6.72C68.71,179.15,67.5,181.42,66.4,183.69z"/>
<circle class="st6" cx="243.84" cy="43.41" r="26.37"/>
<circle class="st4" cx="266.7" cy="88.91" r="13.18"/>
<g>
	<path d="M456.06,273.12h-29.49c-0.87-18.85-5.97-38.45-15.31-58.79c-3.74,0-7.47-0.31-11.2-0.93v59.72h-27.72v-130.6h37.58
		c27.66,0,41.49,12.34,41.49,37.02c0,12.53-5.02,22.26-15.07,29.21C446.76,226.99,453.33,248.44,456.06,273.12z M423.69,178.24
		c0-8.43-4.94-12.65-14.81-12.65h-9.75v24.93c3.87,1.12,7.5,1.67,10.87,1.67c5,0,8.53-1.08,10.59-3.26
		C422.65,186.77,423.69,183.2,423.69,178.24z"/>
	<path d="M548.33,230.89c0,15.51-2.6,26.48-7.81,32.93c-5.95,7.32-16.5,10.98-31.63,10.98c-15.13,0-25.61-3.66-31.44-10.98
		c-5.09-6.33-7.63-17.3-7.63-32.93v-88.37h28.09v96.18c0,4.22,0.78,7.19,2.34,8.93c1.56,1.74,4.47,2.6,8.72,2.6
		c4.88,0,8.13-1.24,9.76-3.72c1.25-1.86,1.87-5.21,1.87-10.05v-93.95h27.72V230.89z"/>
	<path d="M644.89,236.85c0,25.3-13.21,37.95-39.63,37.95c-13.65,0-23.57-2.91-29.77-8.74c-6.57-5.95-9.86-15.69-9.86-29.21v-15.63
		h28.65v14.51c0,9.67,3.78,14.51,11.35,14.51c7.44,0,11.16-3.28,11.16-9.86c0-2.35-0.38-4.53-1.12-6.51
		c-1.74-4.22-7.1-9.8-16.06-16.74c-11.7-9.05-19.24-15.38-22.6-18.98c-7.59-8.06-11.39-16.31-11.39-24.74
		c0-21.83,13.18-32.74,39.53-32.74c13.68,0,23.44,2.54,29.28,7.63c6.22,5.46,9.32,14.88,9.32,28.28v8.56h-25.3
		c0-7.19-0.44-11.78-1.3-13.77c-1.62-3.84-5.46-5.77-11.53-5.77c-2.6,0-5.02,0.56-7.26,1.67c-2.73,1.24-4.09,3.04-4.09,5.4
		c0,1.99,2.91,5.46,8.74,10.42c9.55,7.07,19.16,14.14,28.83,21.21C640.54,211.98,644.89,222.83,644.89,236.85z"/>
	<path d="M739.58,236.85c0,25.3-13.21,37.95-39.63,37.95c-13.64,0-23.57-2.91-29.77-8.74c-6.57-5.95-9.86-15.69-9.86-29.21v-15.63
		h28.65v14.51c0,9.67,3.78,14.51,11.35,14.51c7.44,0,11.16-3.28,11.16-9.86c0-2.35-0.37-4.53-1.12-6.51
		c-1.75-4.22-7.1-9.8-16.06-16.74c-11.7-9.05-19.23-15.38-22.6-18.98c-7.59-8.06-11.39-16.31-11.39-24.74
		c0-21.83,13.18-32.74,39.54-32.74c13.67,0,23.44,2.54,29.28,7.63c6.22,5.46,9.32,14.88,9.32,28.28v8.56h-25.3
		c0-7.19-0.44-11.78-1.3-13.77c-1.61-3.84-5.46-5.77-11.53-5.77c-2.6,0-5.02,0.56-7.26,1.67c-2.73,1.24-4.09,3.04-4.09,5.4
		c0,1.99,2.91,5.46,8.74,10.42c9.55,7.07,19.16,14.14,28.84,21.21C735.24,211.98,739.58,222.83,739.58,236.85z"/>
	<path d="M786.28,273.12h-27.72v-130.6h27.72V273.12z"/>
	<path d="M883.01,273.12H855.3v-23.44h-22.7v23.44h-27.72v-25.49c0-47.75,8.74-82.79,26.23-105.11h25.49
		c17.61,23.32,26.42,58.36,26.42,105.11V273.12z M855.3,226.24c0-21.83-3.79-43.04-11.35-63.63c-7.57,20.59-11.35,41.8-11.35,63.63
		H855.3z"/>
	<path d="M963.57,273.12H900.5v-130.6h28.09v105.86h34.97V273.12z"/>
	<path d="M1002.45,273.12h-27.72v-130.6h27.72V273.12z"/>
	<path d="M1101.98,146.24c0,19.6-4.71,35.47-14.14,47.63c9.42,10.54,14.14,34.05,14.14,70.51v8.74h-27.72c0-2.6,0-6.45,0-11.53
		c0-5.08,0-8.93,0-11.53c0-17.98-3.66-31.38-10.98-40.19c-2.48,2.23-6.45,5.27-11.91,9.12v54.14h-27.35v-130.6h27.35v55.44
		c13.84-12.53,21.32-31,22.43-55.44h27.99c0,0.37,0.06,0.99,0.19,1.86C1101.98,145.25,1101.98,145.87,1101.98,146.24z"/>
	<path d="M1182.35,273.12h-61.95v-130.6h60.28v24.56h-32.93v22.88h34.6v23.44h-34.6v35.16h34.6V273.12z"/>
</g>
<path class="st7" d="M155.41,346.32c0-0.01,0.04-0.01,0.06-0.01v0.01H155.41z"/>
<g>
	<path d="M396.92,296.94h-6.84v37.04h-9.74v-37.04h-6.78v-8.26h23.36V296.94z"/>
	<path d="M429.37,305.01c0,11.14-4.3,16.71-12.9,16.71c-1.72,0-3.42-0.13-5.1-0.39v12.65h-9.48v-45.29h12.65
		c5.51,0,9.4,1.38,11.68,4.13C428.32,295.31,429.37,299.37,429.37,305.01z M419.76,305.14c0-2.67-0.3-4.56-0.91-5.68
		c-0.87-1.51-2.51-2.26-4.94-2.26h-2.54v16.07c1.3,0.22,2.6,0.32,3.9,0.32c2.04,0,3.36-0.99,3.97-2.97
		C419.59,309.59,419.76,307.76,419.76,305.14z"/>
	<path d="M459.18,333.98h-9.61v-8.71h-7.87v8.71h-9.61v-8.71c0-16.62,3.03-28.81,9.1-36.58h8.84c6.11,8.12,9.16,20.31,9.16,36.58
		V333.98z M449.57,317.72c0-7.57-1.31-14.93-3.94-22.07c-2.62,7.14-3.94,14.5-3.94,22.07H449.57z"/>
	<path d="M492.28,333.98h-9.61v-20.71h-7.68v20.71h-9.61v-45.29h9.61v16.45h7.68v-16.45h9.61V333.98z"/>
	<path d="M526.41,319.33c0,5.42-0.93,9.25-2.77,11.48c-2.02,2.5-5.68,3.74-10.97,3.74c-5.25,0-8.9-1.27-10.97-3.81
		c-1.81-2.24-2.71-6.04-2.71-11.42v-16c0-5.42,0.9-9.23,2.71-11.42c2.02-2.49,5.68-3.74,10.97-3.74c6.11,0,10.07,1.66,11.87,4.97
		c1.25,2.28,1.87,6.75,1.87,13.42h-9.94v-5.61c0-1.55-0.22-2.62-0.65-3.23c-0.56-0.69-1.61-1.03-3.16-1.03
		c-1.46,0-2.47,0.29-3.03,0.87c-0.56,0.58-0.84,1.6-0.84,3.07v21.42c0,1.46,0.28,2.5,0.84,3.1c0.56,0.6,1.57,0.9,3.03,0.9
		c1.63,0,2.71-0.36,3.23-1.1c0.39-0.6,0.58-1.7,0.58-3.29v-7.74h9.94V319.33z"/>
	<path d="M576.03,310.56c0,10.97-4.3,16.45-12.9,16.45c-1.81,0-3.51-0.26-5.1-0.77v7.74h-9.48v-7.74c-1.59,0.52-3.29,0.77-5.1,0.77
		c-8.6,0-12.9-5.48-12.9-16.45c0-10.71,4.71-16.07,14.13-16.07h3.87v-5.81h9.48v5.81h3.87
		C571.32,294.49,576.03,299.85,576.03,310.56z M548.55,318.24v-15.23h-2.54c-2.51,0-4.18,0.67-5.01,2
		c-0.56,0.99-0.85,2.84-0.85,5.55c0,2.45,0.19,4.24,0.58,5.36c0.65,1.98,1.95,2.97,3.9,2.97
		C546.12,318.88,547.42,318.67,548.55,318.24z M566.42,310.56c0-2.75-0.28-4.6-0.85-5.55c-0.78-1.33-2.45-2-5.01-2h-2.54v15.23
		c1.21,0.43,2.51,0.65,3.9,0.65c1.95,0,3.25-0.99,3.9-2.97C566.22,314.79,566.42,313.01,566.42,310.56z"/>
	<path d="M603.52,333.98h-21.49v-45.29h20.9v8.52h-11.42v7.94h12v8.13h-12v12.19h12V333.98z"/>
	<path d="M637,305.01c0,11.14-4.3,16.71-12.9,16.71c-1.72,0-3.42-0.13-5.1-0.39v12.65h-9.48v-45.29h12.65
		c5.51,0,9.4,1.38,11.68,4.13C635.95,295.31,637,299.37,637,305.01z M627.39,305.14c0-2.67-0.3-4.56-0.91-5.68
		c-0.87-1.51-2.51-2.26-4.94-2.26H619v16.07c1.3,0.22,2.6,0.32,3.9,0.32c2.04,0,3.36-0.99,3.97-2.97
		C627.22,309.59,627.39,307.76,627.39,305.14z"/>
</g>
<path d="M198.31,201.7"/>
<path d="M97.78,292.83c-2.05,1.73-4.64,2.72-7.19,2.55c-1.69-0.1-3.36-0.72-4.85-1.99c-3.99-3.28-5.33-8.79-5.03-13.64
	c0.37,4.65,2.18,9.53,6.18,12.04c1.06,0.69,2.17,1,3.24,1.02l-0.01,0.02H97.78z"/>
<path d="M313.92,214.97"/>
<path d="M273.81,206.74"/>
<path d="M80.55,222.35l9.56-1.71v22.58l-14.13,0.43c-0.02-0.88-0.03-1.76-0.03-2.65c0-6.03,0.49-11.94,1.45-17.7
	C78.4,222.88,79.45,222.55,80.55,222.35z"/>
<polygon points="96.05,219.59 116.62,215.9 116.62,242.42 96.05,243.05 "/>
<polygon points="122.56,214.85 146.66,210.54 146.66,241.51 122.56,242.24 "/>
<polygon points="179.26,204.71 179.26,240.51 152.59,241.32 152.59,209.48 "/>
<path d="M192.53,213.9v61.86c0-8.8-4.26-16.18-10.02-18.22c-2.78-9.71-9.45-16.55-17.23-16.55v-33.78l16.13-2.83
	C187.25,203.48,192.53,207.99,192.53,213.9z"/>
<g>
	<path d="M166.03,276.65c0.65,7.4,4.65,18.13,13.25,17.98c0,0,0,4.33,0,4.33C168.79,297.85,165.26,285.46,166.03,276.65
		L166.03,276.65z"/>
</g>
<path d="M179.26,264.3c-4.47,0-8.09,5.14-8.09,11.47c0,6.34,3.62,11.48,8.09,11.48c4.47,0,8.09-5.14,8.09-11.48
	C187.35,269.43,183.73,264.3,179.26,264.3z M177.4,283.91c-4.61-2.86-5.15-9.83-2.29-14.11c1.11-1.71,3.2-3.13,5.28-2.73
	c-7.01,1.65-7.01,15.74,0,17.41C179.4,284.66,178.32,284.42,177.4,283.91z M179.26,281.13c4.33-1.06,4.32-9.65,0-10.71
	c2.77-0.37,4.39,2.96,4.32,5.35C183.64,278.15,182.04,281.49,179.26,281.13z"/>
<path d="M90.12,273.11c-3.41,0-6.18,3.93-6.18,8.76s2.76,8.76,6.18,8.76s6.19-3.93,6.19-8.76S93.53,273.11,90.12,273.11z
	 M88.7,288.09c-4.77-2.62-3.94-13.16,2.28-12.86c-5.37,1.31-5.37,11.97,0,13.29C90.23,288.66,89.4,288.48,88.7,288.09z
	 M90.12,285.96c3.32-0.84,3.31-7.35,0-8.19C94.5,277.53,94.5,286.21,90.12,285.96z"/>
<path d="M208.48,199.99c19.1-3.53,37.46-3.67,55.4-1.89C245.39,198,226.92,198.66,208.48,199.99z"/>
<path d="M172.66,256.97l-88.6-8.1l-6.5-0.59h85.73c2.63,0,5.08,1.4,6.43,3.7L172.66,256.97z"/>
<path d="M219.68,282.44l-17.45-0.17l1.76-10.1c0.18-1.06,1.49-1.86,2.77-1.74l9.26,0.94c0.85,0.08,1.48,0.57,1.62,1.22
	L219.68,282.44z"/>
<path d="M217.98,288.52h-14.64c-1.21,0-2.06-0.79-1.89-1.75l0.47-2.72l18.13,0.16l0.43,2.06
	C220.71,287.39,219.46,288.52,217.98,288.52z"/>
<path d="M255.78,282.95l4.8-0.04c-1.54,1.25-3.21,2.31-5.03,3.14c-0.19-0.32-0.27-0.68-0.2-1.05L255.78,282.95z"/>
<path d="M268.72,269.19c-0.86,4.58-3.06,8.69-6.18,11.9c-0.07,0.08-0.16,0.16-0.23,0.23l-6.17,0.05h-0.04l0.04-0.22l2.04-9.83
	c0.14-0.66,0.77-1.14,1.62-1.22L268.72,269.19z"/>
<path d="M239.66,266.82c-8.13-0.01-16.26-0.68-24.39-1.99c-5.53-0.89-9.49-4.84-9.49-9.41v-20.79L239.66,266.82z"/>
<path d="M253.46,266.19c-2.14,0.2-4.26,0.35-6.4,0.44l-41.28-39.22v-6.77L253.46,266.19z"/>
<path d="M273.81,214.4v41.02c0,3.58-2.43,6.78-6.14,8.42h-0.01l-58.97-56.36c1.85-1.55,4.43-2.5,7.29-2.5h46.25
	C268.61,204.98,273.81,209.19,273.81,214.4z"/>
<path d="M227.08,269.2"/>
</svg>
