<svg version="1.1" id="Слой_1" xmlns="http://www.w3.org/2000/svg" x="0" y="0" viewBox="0 0 1204.09 412.09" style="enable-background:new 0 0 1204.09 412.09" xml:space="preserve"><style>.st2{fill:none}.st4{fill:#ff5363}</style><path d="M61.43 163.95c0 2.07-.32 4.12-.94 5.99-.03.16-.1.32-.16.45-.65 1.94-1.59 3.76-2.85 5.38 0 .03-.03.06-.03.1a19.74 19.74 0 0 1-15.88 7.94c-10.95 0-19.83-8.88-19.83-19.86 0-10.95 8.88-19.86 19.83-19.86 10.98-.01 19.86 8.9 19.86 19.86z" style="fill:#fd5360"/><path d="M262.08 137.52c-9.6-7.25-20.21-13.24-31.63-17.62-14.62-5.67-30.49-8.79-47.1-8.79-2.75 0-5.51.08-8.22.24-39.52 2.47-74.31 22.52-96.54 52.44-.08-1.46-.12-2.92-.12-4.41 0-51.43 41.67-93.1 93.1-93.1 34.83 0 65.16 19.11 81.11 47.38.45.77.85 1.54 1.26 2.31a91.163 91.163 0 0 1 8.14 21.55z" style="fill:#ffa521"/><path class="st2" d="M252.69 113.67c.45.77.85 1.54 1.26 2.31 1.13-.04 2.27-.08 3.44-.08.61 0 1.21 0 1.78.04-2.15-.81-4.3-1.58-6.48-2.27z"/><path d="M348.58 245.57c0 63.09-42.2 116.39-99.9 133.11-12.27 3.6-25.27 5.51-38.71 5.51-26.36 0-51.03-7.37-72-20.17 14.13 5.26 29.44 8.14 45.4 8.14 55.36 0 102.66-34.46 121.61-83.1 5.55-3.28 10.73-7.17 15.43-11.5v-.04c13.28-12.19 23-28.23 27.42-46.37.51 4.74.75 9.56.75 14.42z" style="fill:#004bf4"/><path class="st4" d="M350.49 209.04c0 7.61-.93 15.02-2.67 22.11-4.41 18.14-14.13 34.18-27.42 46.37v.04c-4.7 4.33-9.88 8.22-15.43 11.5 5.75-14.7 8.91-30.7 8.91-47.42 0-24.22-6.6-46.89-18.1-66.33-8.67-14.7-20.17-27.54-33.69-37.78a91.358 91.358 0 0 0-8.14-21.54c1.13-.04 2.27-.08 3.44-.08.61 0 1.21 0 1.78.04 50.62.92 91.32 42.27 91.32 93.09z"/><path class="st2" d="M70.17 176.4c-2.51 3.52-4.82 7.13-6.97 10.89 1.17-1.05 2.23-2.23 3.16-3.48 0-.04.04-.08.04-.12 1.58-2.02 2.75-4.29 3.56-6.72.32-.57.65-1.13.97-1.66-.27.36-.52.72-.76 1.09z"/><path d="M248.68 378.68c-19.44 10.45-41.71 16.36-65.32 16.36-76.54 0-138.62-62.08-138.62-138.62 0-25.19 6.72-48.8 18.47-69.13 1.17-1.05 2.23-2.23 3.16-3.48-8.67 17.41-13.53 37.05-13.53 57.83 0 56.13 35.43 103.95 85.12 122.38 20.98 12.8 45.64 20.17 72 20.17 13.45 0 26.45-1.91 38.72-5.51z" style="fill:#7013c6"/><path d="M292.36 241c0 21.78-6.44 42.07-17.49 59.01a108.813 108.813 0 0 1-35.27 33.93 108.1 108.1 0 0 1-18.15 8.68c-11.63 4.27-24.19 6.59-37.3 6.59-7.87 0-15.57-.85-22.97-2.45a106.894 106.894 0 0 1-23.24-7.88c-.15-.06-.28-.13-.43-.2-19.66-9.39-36.03-24.56-46.94-43.29-.26-.45-.52-.9-.77-1.35.33.05.67.07 1.02.07 1.49 0 2.91-.46 4.19-1.28h4.28c2.89 0 5.47-1.79 7.24-4.64h62.77c2.43 3.91 5.99 6.37 9.94 6.37h9.36c3.97 0 7.53-2.46 9.95-6.37h27.55c2.43 3.91 5.99 6.37 9.95 6.37 3.97 0 7.53-2.47 9.94-6.39 3.4-.02 6.63-.79 9.53-2.14 1.82-.83 3.5-1.89 5.03-3.14 0 0 .01 0 .01-.01.6-.49 1.17-1.02 1.72-1.57.07-.07.16-.15.23-.23a23.22 23.22 0 0 0 6.18-11.9c.27-1.4.41-2.86.41-4.34v-56.38l3.13 16.03 3.21-.04c4.35-.04 7.86-3.59 7.86-7.94v-6.22c0-4.31-3.51-7.82-7.82-7.82h-7.23c-2.68-9.3-11.46-15.97-21.64-15.52l-51.4 2.25-115.6 25.2c-.13.03-.25.05-.38.09 1.75-6.94 4.18-13.61 7.2-19.94 17.33-36.52 54.59-61.76 97.72-61.76.58 0 1.15 0 1.73.02 5.43.07 10.77.57 15.96 1.44 24.94 4.08 46.98 16.69 63.06 34.74 17.1 19.12 27.46 44.35 27.46 72.01z"/><path class="st2" d="M66.4 183.69c1.58-2.02 2.75-4.29 3.56-6.72a110.39 110.39 0 0 0-3.56 6.72z"/><circle cx="243.84" cy="43.41" r="26.37" style="fill:#004bf6"/><circle class="st4" cx="266.7" cy="88.91" r="13.18"/><path d="M456.06 273.12h-29.49c-.87-18.85-5.97-38.45-15.31-58.79-3.74 0-7.47-.31-11.2-.93v59.72h-27.72v-130.6h37.58c27.66 0 41.49 12.34 41.49 37.02 0 12.53-5.02 22.26-15.07 29.21 10.42 18.24 16.99 39.69 19.72 64.37zm-32.37-94.88c0-8.43-4.94-12.65-14.81-12.65h-9.75v24.93c3.87 1.12 7.5 1.67 10.87 1.67 5 0 8.53-1.08 10.59-3.26 2.06-2.16 3.1-5.73 3.1-10.69zm124.64 52.65c0 15.51-2.6 26.48-7.81 32.93-5.95 7.32-16.5 10.98-31.63 10.98-15.13 0-25.61-3.66-31.44-10.98-5.09-6.33-7.63-17.3-7.63-32.93v-88.37h28.09v96.18c0 4.22.78 7.19 2.34 8.93 1.56 1.74 4.47 2.6 8.72 2.6 4.88 0 8.13-1.24 9.76-3.72 1.25-1.86 1.87-5.21 1.87-10.05v-93.95h27.72v88.38zm96.56 5.96c0 25.3-13.21 37.95-39.63 37.95-13.65 0-23.57-2.91-29.77-8.74-6.57-5.95-9.86-15.69-9.86-29.21v-15.63h28.65v14.51c0 9.67 3.78 14.51 11.35 14.51 7.44 0 11.16-3.28 11.16-9.86 0-2.35-.38-4.53-1.12-6.51-1.74-4.22-7.1-9.8-16.06-16.74-11.7-9.05-19.24-15.38-22.6-18.98-7.59-8.06-11.39-16.31-11.39-24.74 0-21.83 13.18-32.74 39.53-32.74 13.68 0 23.44 2.54 29.28 7.63 6.22 5.46 9.32 14.88 9.32 28.28v8.56h-25.3c0-7.19-.44-11.78-1.3-13.77-1.62-3.84-5.46-5.77-11.53-5.77-2.6 0-5.02.56-7.26 1.67-2.73 1.24-4.09 3.04-4.09 5.4 0 1.99 2.91 5.46 8.74 10.42 9.55 7.07 19.16 14.14 28.83 21.21 8.7 7.68 13.05 18.53 13.05 32.55zm94.69 0c0 25.3-13.21 37.95-39.63 37.95-13.64 0-23.57-2.91-29.77-8.74-6.57-5.95-9.86-15.69-9.86-29.21v-15.63h28.65v14.51c0 9.67 3.78 14.51 11.35 14.51 7.44 0 11.16-3.28 11.16-9.86 0-2.35-.37-4.53-1.12-6.51-1.75-4.22-7.1-9.8-16.06-16.74-11.7-9.05-19.23-15.38-22.6-18.98-7.59-8.06-11.39-16.31-11.39-24.74 0-21.83 13.18-32.74 39.54-32.74 13.67 0 23.44 2.54 29.28 7.63 6.22 5.46 9.32 14.88 9.32 28.28v8.56h-25.3c0-7.19-.44-11.78-1.3-13.77-1.61-3.84-5.46-5.77-11.53-5.77-2.6 0-5.02.56-7.26 1.67-2.73 1.24-4.09 3.04-4.09 5.4 0 1.99 2.91 5.46 8.74 10.42 9.55 7.07 19.16 14.14 28.84 21.21 8.69 7.68 13.03 18.53 13.03 32.55zm46.7 36.27h-27.72v-130.6h27.72v130.6zm96.73 0H855.3v-23.44h-22.7v23.44h-27.72v-25.49c0-47.75 8.74-82.79 26.23-105.11h25.49c17.61 23.32 26.42 58.36 26.42 105.11v25.49zm-27.71-46.88c0-21.83-3.79-43.04-11.35-63.63-7.57 20.59-11.35 41.8-11.35 63.63h22.7zm108.27 46.88H900.5v-130.6h28.09v105.86h34.97v24.74zm38.88 0h-27.72v-130.6h27.72v130.6zm99.53-126.88c0 19.6-4.71 35.47-14.14 47.63 9.42 10.54 14.14 34.05 14.14 70.51v8.74h-27.72v-23.06c0-17.98-3.66-31.38-10.98-40.19-2.48 2.23-6.45 5.27-11.91 9.12v54.14h-27.35v-130.6h27.35v55.44c13.84-12.53 21.32-31 22.43-55.44h27.99c0 .37.06.99.19 1.86v1.85zm80.37 126.88h-61.95v-130.6h60.28v24.56h-32.93v22.88h34.6v23.44h-34.6v35.16h34.6v24.56z"/><path d="M155.41 346.32c0-.01.04-.01.06-.01v.01h-.06z" style="fill:#fff"/><path d="M396.92 296.94h-6.84v37.04h-9.74v-37.04h-6.78v-8.26h23.36v8.26zm32.45 8.07c0 11.14-4.3 16.71-12.9 16.71-1.72 0-3.42-.13-5.1-.39v12.65h-9.48v-45.29h12.65c5.51 0 9.4 1.38 11.68 4.13 2.1 2.49 3.15 6.55 3.15 12.19zm-9.61.13c0-2.67-.3-4.56-.91-5.68-.87-1.51-2.51-2.26-4.94-2.26h-2.54v16.07c1.3.22 2.6.32 3.9.32 2.04 0 3.36-.99 3.97-2.97.35-1.03.52-2.86.52-5.48zm39.42 28.84h-9.61v-8.71h-7.87v8.71h-9.61v-8.71c0-16.62 3.03-28.81 9.1-36.58h8.84c6.11 8.12 9.16 20.31 9.16 36.58v8.71zm-9.61-16.26c0-7.57-1.31-14.93-3.94-22.07-2.62 7.14-3.94 14.5-3.94 22.07h7.88zm42.71 16.26h-9.61v-20.71h-7.68v20.71h-9.61v-45.29h9.61v16.45h7.68v-16.45h9.61v45.29zm34.13-14.65c0 5.42-.93 9.25-2.77 11.48-2.02 2.5-5.68 3.74-10.97 3.74-5.25 0-8.9-1.27-10.97-3.81-1.81-2.24-2.71-6.04-2.71-11.42v-16c0-5.42.9-9.23 2.71-11.42 2.02-2.49 5.68-3.74 10.97-3.74 6.11 0 10.07 1.66 11.87 4.97 1.25 2.28 1.87 6.75 1.87 13.42h-9.94v-5.61c0-1.55-.22-2.62-.65-3.23-.56-.69-1.61-1.03-3.16-1.03-1.46 0-2.47.29-3.03.87-.56.58-.84 1.6-.84 3.07v21.42c0 1.46.28 2.5.84 3.1.56.6 1.57.9 3.03.9 1.63 0 2.71-.36 3.23-1.1.39-.6.58-1.7.58-3.29v-7.74h9.94v5.42zm49.62-8.77c0 10.97-4.3 16.45-12.9 16.45-1.81 0-3.51-.26-5.1-.77v7.74h-9.48v-7.74c-1.59.52-3.29.77-5.1.77-8.6 0-12.9-5.48-12.9-16.45 0-10.71 4.71-16.07 14.13-16.07h3.87v-5.81h9.48v5.81h3.87c9.42 0 14.13 5.36 14.13 16.07zm-27.48 7.68v-15.23h-2.54c-2.51 0-4.18.67-5.01 2-.56.99-.85 2.84-.85 5.55 0 2.45.19 4.24.58 5.36.65 1.98 1.95 2.97 3.9 2.97 1.49-.01 2.79-.22 3.92-.65zm17.87-7.68c0-2.75-.28-4.6-.85-5.55-.78-1.33-2.45-2-5.01-2h-2.54v15.23c1.21.43 2.51.65 3.9.65 1.95 0 3.25-.99 3.9-2.97.4-1.13.6-2.91.6-5.36zm37.1 23.42h-21.49v-45.29h20.9v8.52h-11.42v7.94h12v8.13h-12v12.19h12v8.51zM637 305.01c0 11.14-4.3 16.71-12.9 16.71-1.72 0-3.42-.13-5.1-.39v12.65h-9.48v-45.29h12.65c5.51 0 9.4 1.38 11.68 4.13 2.1 2.49 3.15 6.55 3.15 12.19zm-9.61.13c0-2.67-.3-4.56-.91-5.68-.87-1.51-2.51-2.26-4.94-2.26H619v16.07c1.3.22 2.6.32 3.9.32 2.04 0 3.36-.99 3.97-2.97.35-1.03.52-2.86.52-5.48zM97.78 292.83c-2.05 1.73-4.64 2.72-7.19 2.55-1.69-.1-3.36-.72-4.85-1.99-3.99-3.28-5.33-8.79-5.03-13.64.37 4.65 2.18 9.53 6.18 12.04 1.06.69 2.17 1 3.24 1.02l-.01.02h7.66zm-17.23-70.48 9.56-1.71v22.58l-14.13.43c-.02-.88-.03-1.76-.03-2.65 0-6.03.49-11.94 1.45-17.7 1-.42 2.05-.75 3.15-.95zm15.5-2.76 20.57-3.69v26.52l-20.57.63zm26.51-4.74 24.1-4.31v30.97l-24.1.73zm56.7-10.14v35.8l-26.67.81v-31.84z"/><path d="M192.53 213.9v61.86c0-8.8-4.26-16.18-10.02-18.22-2.78-9.71-9.45-16.55-17.23-16.55v-33.78l16.13-2.83c5.84-.9 11.12 3.61 11.12 9.52zm-26.5 62.75c.65 7.4 4.65 18.13 13.25 17.98v4.33c-10.49-1.11-14.02-13.5-13.25-22.31zm13.23-12.35c-4.47 0-8.09 5.14-8.09 11.47 0 6.34 3.62 11.48 8.09 11.48s8.09-5.14 8.09-11.48c0-6.34-3.62-11.47-8.09-11.47zm-1.86 19.61c-4.61-2.86-5.15-9.83-2.29-14.11 1.11-1.71 3.2-3.13 5.28-2.73-7.01 1.65-7.01 15.74 0 17.41-.99.18-2.07-.06-2.99-.57zm1.86-2.78c4.33-1.06 4.32-9.65 0-10.71 2.77-.37 4.39 2.96 4.32 5.35.06 2.38-1.54 5.72-4.32 5.36zm-89.14-8.02c-3.41 0-6.18 3.93-6.18 8.76s2.76 8.76 6.18 8.76 6.19-3.93 6.19-8.76-2.78-8.76-6.19-8.76zm-1.42 14.98c-4.77-2.62-3.94-13.16 2.28-12.86-5.37 1.31-5.37 11.97 0 13.29-.75.14-1.58-.04-2.28-.43zm1.42-2.13c3.32-.84 3.31-7.35 0-8.19 4.38-.24 4.38 8.44 0 8.19zm118.36-85.97c19.1-3.53 37.46-3.67 55.4-1.89-18.49-.1-36.96.56-55.4 1.89zm-35.82 56.98-88.6-8.1-6.5-.59h85.73c2.63 0 5.08 1.4 6.43 3.7l2.94 4.99zm47.02 25.47-17.45-.17 1.76-10.1c.18-1.06 1.49-1.86 2.77-1.74l9.26.94c.85.08 1.48.57 1.62 1.22l2.04 9.85zm-1.7 6.08h-14.64c-1.21 0-2.06-.79-1.89-1.75l.47-2.72 18.13.16.43 2.06c.23 1.12-1.02 2.25-2.5 2.25zm37.8-5.57 4.8-.04a23.323 23.323 0 0 1-5.03 3.14c-.19-.32-.27-.68-.2-1.05l.43-2.05zm12.94-13.76a23.22 23.22 0 0 1-6.18 11.9c-.07.08-.16.16-.23.23l-6.17.05h-.04l.04-.22 2.04-9.83c.14-.66.77-1.14 1.62-1.22l8.92-.91zm-29.06-2.37c-8.13-.01-16.26-.68-24.39-1.99-5.53-.89-9.49-4.84-9.49-9.41v-20.79l33.88 32.19zm13.8-.63c-2.14.2-4.26.35-6.4.44l-41.28-39.22v-6.77l47.68 45.55zm20.35-51.79v41.02c0 3.58-2.43 6.78-6.14 8.42h-.01l-58.97-56.36c1.85-1.55 4.43-2.5 7.29-2.5h46.25c6.38 0 11.58 4.21 11.58 9.42z"/></svg>